<?xml version="1.0"?>
<svg xmlns="http://www.w3.org/2000/svg" xmlns:xlink="http://www.w3.org/1999/xlink" version="1.1" viewBox="0 0 224 224" width="100px" height="100px"><g fill="none" fill-rule="nonzero" stroke="none" stroke-width="1" stroke-linecap="butt" stroke-linejoin="miter" stroke-miterlimit="10" stroke-dasharray="" stroke-dashoffset="0" font-family="none" font-weight="none" font-size="none" text-anchor="none" style="mix-blend-mode: normal"><path d="M0,224v-224h224v224z" fill="none"/><g id="Layer_1"><path d="M56,67.2l8.1648,106.13792c0.448,5.8352 5.31328,10.34208 11.1664,10.34208h73.3376c5.85312,0 10.7184,-4.50688 11.1664,-10.34208l8.1648,-106.13792" fill="#e74c3c"/><g fill="#e74c3c"><path d="M145.6,85.12v78.4c0,3.696 -3.024,6.72 -6.72,6.72c-3.696,0 -6.72,-3.024 -6.72,-6.72v-78.4c0,-3.696 3.024,-6.72 6.72,-6.72c3.696,0 6.72,3.024 6.72,6.72z"/></g><g fill="#e74c3c"><path d="M118.72,85.12v78.4c0,3.696 -3.024,6.72 -6.72,6.72c-3.696,0 -6.72,-3.024 -6.72,-6.72v-78.4c0,-3.696 3.024,-6.72 6.72,-6.72c3.696,0 6.72,3.024 6.72,6.72z"/></g><g fill="#e74c3c"><path d="M91.84,85.12v78.4c0,3.696 -3.024,6.72 -6.72,6.72c-3.696,0 -6.72,-3.024 -6.72,-6.72v-78.4c0,-3.696 3.024,-6.72 6.72,-6.72c3.696,0 6.72,3.024 6.72,6.72z"/></g><path d="M172.48,53.76h-8.96l-4.1104,-6.84992c-1.61952,-2.6992 -4.536,-4.35008 -7.6832,-4.35008h-79.4528c-3.1472,0 -6.06368,1.65088 -7.6832,4.35008l-4.1104,6.84992h-8.96c-3.71168,0 -6.72,3.00832 -6.72,6.72c0,3.71168 3.00832,6.72 6.72,6.72h120.96c3.71168,0 6.72,-3.00832 6.72,-6.72c0,-3.71168 -3.00832,-6.72 -6.72,-6.72z" fill="#e74c3c"/><g fill="#1f212b"><path d="M148.6688,185.92h-73.3376c-6.97984,0 -12.86656,-5.45216 -13.39968,-12.4096l-8.1648,-106.13792l4.46656,-0.34496l8.1648,106.14016c0.35616,4.63904 4.28064,8.27232 8.93312,8.27232h73.3376c4.65248,0 8.57696,-3.63328 8.93312,-8.27008l8.1648,-106.1424l4.46656,0.34496l-8.1648,106.14016c-0.53536,6.9552 -6.42208,12.40736 -13.39968,12.40736z"/></g><g fill="#1f212b"><path d="M125.44,44.8c-1.23648,0 -2.24,-1.00128 -2.24,-2.24v-6.72c0,-1.23648 -1.00576,-2.24 -2.24,-2.24h-17.92c-1.23424,0 -2.24,1.00352 -2.24,2.24v6.72c0,1.23872 -1.00352,2.24 -2.24,2.24c-1.23648,0 -2.24,-1.00128 -2.24,-2.24v-6.72c0,-3.70496 3.01504,-6.72 6.72,-6.72h17.92c3.70496,0 6.72,3.01504 6.72,6.72v6.72c0,1.23872 -1.00352,2.24 -2.24,2.24z"/></g><g fill="#1f212b"><path d="M172.48,69.44h-120.96c-4.94144,0 -8.96,-4.01856 -8.96,-8.96c0,-4.94144 4.01856,-8.96 8.96,-8.96h7.69216l3.45632,-5.76128c2.01152,-3.35328 5.69184,-5.43872 9.60512,-5.43872h79.45504c3.91328,0 7.59136,2.08544 9.60288,5.43872l3.45632,5.76128h7.69216c4.94144,0 8.96,4.01856 8.96,8.96c0,4.94144 -4.01856,8.96 -8.96,8.96zM51.52,56c-2.47072,0 -4.48,2.00928 -4.48,4.48c0,2.47072 2.00928,4.48 4.48,4.48h120.96c2.47072,0 4.48,-2.00928 4.48,-4.48c0,-2.47072 -2.00928,-4.48 -4.48,-4.48h-8.96c-0.78624,0 -1.51648,-0.4144 -1.91968,-1.0864l-4.1104,-6.84992c-1.20736,-2.01152 -3.416,-3.26368 -5.76352,-3.26368h-79.4528c-2.34752,0 -4.55392,1.25216 -5.76128,3.26368l-4.1104,6.84992c-0.40544,0.672 -1.13568,1.0864 -1.92192,1.0864z"/></g><g fill="#1f212b"><path d="M137.76,56h-80.64c-0.61824,0 -1.12,-0.50176 -1.12,-1.12c0,-0.61824 0.50176,-1.12 1.12,-1.12h80.64c0.61824,0 1.12,0.50176 1.12,1.12c0,0.61824 -0.50176,1.12 -1.12,1.12z"/></g><g fill="#1f212b"><path d="M164.64,56h-11.2c-0.61824,0 -1.12,-0.50176 -1.12,-1.12c0,-0.61824 0.50176,-1.12 1.12,-1.12h11.2c0.61824,0 1.12,0.50176 1.12,1.12c0,0.61824 -0.50176,1.12 -1.12,1.12z"/></g><g fill="#1f212b"><path d="M148.96,56h-4.48c-0.61824,0 -1.12,-0.50176 -1.12,-1.12c0,-0.61824 0.50176,-1.12 1.12,-1.12h4.48c0.61824,0 1.12,0.50176 1.12,1.12c0,0.61824 -0.50176,1.12 -1.12,1.12z"/></g><g fill="#1f212b"><path d="M112,170.24c-3.70496,0 -6.72,-3.01504 -6.72,-6.72v-78.4c0,-3.70496 3.01504,-6.72 6.72,-6.72c3.70496,0 6.72,3.01504 6.72,6.72v57.12c0,0.61824 -0.50176,1.12 -1.12,1.12c-0.61824,0 -1.12,-0.50176 -1.12,-1.12v-57.12c0,-2.47072 -2.00928,-4.48 -4.48,-4.48c-2.47072,0 -4.48,2.00928 -4.48,4.48v78.4c0,2.47072 2.00928,4.48 4.48,4.48c2.47072,0 4.48,-2.00928 4.48,-4.48v-7.84c0,-0.61824 0.50176,-1.12 1.12,-1.12c0.61824,0 1.12,0.50176 1.12,1.12v7.84c0,3.70496 -3.01504,6.72 -6.72,6.72z"/></g><g fill="#1f212b"><path d="M138.88,170.24c-3.70496,0 -6.72,-3.01504 -6.72,-6.72v-57.12c0,-0.61824 0.50176,-1.12 1.12,-1.12c0.61824,0 1.12,0.50176 1.12,1.12v57.12c0,2.47072 2.00928,4.48 4.48,4.48c2.47072,0 4.48,-2.00928 4.48,-4.48v-78.4c0,-2.47072 -2.00928,-4.48 -4.48,-4.48c-2.47072,0 -4.48,2.00928 -4.48,4.48v3.36c0,0.61824 -0.50176,1.12 -1.12,1.12c-0.61824,0 -1.12,-0.50176 -1.12,-1.12v-3.36c0,-3.70496 3.01504,-6.72 6.72,-6.72c3.70496,0 6.72,3.01504 6.72,6.72v78.4c0,3.70496 -3.01504,6.72 -6.72,6.72z"/></g><g fill="#1f212b"><path d="M133.28,100.8c-0.61824,0 -1.12,-0.50176 -1.12,-1.12v-4.48c0,-0.61824 0.50176,-1.12 1.12,-1.12c0.61824,0 1.12,0.50176 1.12,1.12v4.48c0,0.61824 -0.50176,1.12 -1.12,1.12z"/></g><g fill="#1f212b"><path d="M85.12,170.24c-3.70496,0 -6.72,-3.01504 -6.72,-6.72v-78.4c0,-3.70496 3.01504,-6.72 6.72,-6.72c3.70496,0 6.72,3.01504 6.72,6.72v78.4c0,3.70496 -3.01504,6.72 -6.72,6.72zM85.12,80.64c-2.47072,0 -4.48,2.00928 -4.48,4.48v78.4c0,2.47072 2.00928,4.48 4.48,4.48c2.47072,0 4.48,-2.00928 4.48,-4.48v-78.4c0,-2.47072 -2.00928,-4.48 -4.48,-4.48z"/></g></g></g></svg>
